<svg xmlns="http://www.w3.org/2000/svg" xmlns:xlink="http://www.w3.org/1999/xlink" width="1426" zoomAndPan="magnify" viewBox="0 0 1069.5 1118.250011" height="1491" preserveAspectRatio="xMidYMid meet" version="1.0"><defs><clipPath id="4d27eac65f"><path d="M 534.21875 599.3125 L 541.171875 599.3125 L 541.171875 606.269531 L 534.21875 606.269531 Z M 534.21875 599.3125 " clip-rule="nonzero"/></clipPath><clipPath id="975681bd52"><path d="M 537.695312 599.3125 C 535.773438 599.3125 534.21875 600.871094 534.21875 602.789062 C 534.21875 604.710938 535.773438 606.269531 537.695312 606.269531 C 539.617188 606.269531 541.171875 604.710938 541.171875 602.789062 C 541.171875 600.871094 539.617188 599.3125 537.695312 599.3125 Z M 537.695312 599.3125 " clip-rule="nonzero"/></clipPath><clipPath id="7d4b986ce6"><path d="M 0.21875 0.3125 L 7.171875 0.3125 L 7.171875 7.269531 L 0.21875 7.269531 Z M 0.21875 0.3125 " clip-rule="nonzero"/></clipPath><clipPath id="c2f9b1b77d"><path d="M 3.695312 0.3125 C 1.773438 0.3125 0.21875 1.871094 0.21875 3.789062 C 0.21875 5.710938 1.773438 7.269531 3.695312 7.269531 C 5.617188 7.269531 7.171875 5.710938 7.171875 3.789062 C 7.171875 1.871094 5.617188 0.3125 3.695312 0.3125 Z M 3.695312 0.3125 " clip-rule="nonzero"/></clipPath><clipPath id="6393e3c8b0"><rect x="0" width="8" y="0" height="8"/></clipPath><clipPath id="42b8a6507f"><path d="M 31 283 L 1062 283 L 1062 834 L 31 834 Z M 31 283 " clip-rule="nonzero"/></clipPath><clipPath id="be604a7f0c"><path d="M 0.109375 786.28125 L 376.386719 0.0117188 L 1068.003906 330.996094 L 691.726562 1117.261719 Z M 0.109375 786.28125 " clip-rule="nonzero"/></clipPath><clipPath id="681d153f75"><path d="M 0.109375 786.28125 L 376.386719 0.0117188 L 1068.003906 330.996094 L 691.726562 1117.261719 Z M 0.109375 786.28125 " clip-rule="nonzero"/></clipPath></defs><g clip-path="url(#4d27eac65f)"><g clip-path="url(#975681bd52)"><g transform="matrix(1, 0, 0, 1, 534, 599)"><g clip-path="url(#6393e3c8b0)"><g clip-path="url(#7d4b986ce6)"><g clip-path="url(#c2f9b1b77d)"><path fill="#a6a6a6" d="M 0.21875 0.3125 L 7.171875 0.3125 L 7.171875 7.269531 L 0.21875 7.269531 Z M 0.21875 0.3125 " fill-opacity="1" fill-rule="nonzero"/></g></g></g></g></g></g><g clip-path="url(#42b8a6507f)"><g clip-path="url(#be604a7f0c)"><g clip-path="url(#681d153f75)"><path fill="#d0cee6" d="M 32.972656 737.871094 C 59.898438 781.027344 95.867188 831.632812 152.039062 833.363281 C 194.46875 834.695312 229.351562 803.960938 251.699219 770.699219 C 264.449219 751.128906 274.664062 730.3125 282.34375 708.253906 C 291.78125 682.296875 298.691406 655.683594 303.074219 628.414062 C 307.464844 600.921875 309.191406 573.261719 308.257812 545.433594 C 307.378906 521.277344 305.722656 493.902344 287.996094 475.574219 C 271.65625 458.710938 244.21875 455.699219 227.882812 474.019531 C 212.496094 491.277344 205.605469 516.691406 204.53125 539.285156 C 202.1875 588.144531 225.757812 634.566406 262.917969 665.503906 C 303.347656 699.207031 357.0625 716.648438 409.003906 721.058594 C 433.4375 723.117188 458.0625 722.105469 481.9375 715.910156 C 487.953125 714.363281 493.84375 712.445312 499.617188 710.15625 C 505.386719 707.867188 510.992188 705.222656 516.425781 702.222656 C 521.863281 699.226562 527.089844 695.894531 532.105469 692.238281 C 537.125 688.578125 541.890625 684.617188 546.40625 680.355469 C 565.90625 662.03125 580.515625 638.855469 592.402344 615.074219 C 603.941406 591.886719 613.714844 566.796875 615.859375 540.777344 C 617.894531 516.304688 613.132812 491.808594 598.890625 471.523438 C 586.113281 453.160156 566.0625 439.117188 543.300781 437.917969 C 504.878906 435.871094 474.664062 469.410156 467.210938 504.800781 C 457.984375 548.046875 486.691406 587.082031 524.246094 605.519531 C 568.089844 627.15625 617.847656 621.371094 661.628906 602.566406 C 684.542969 592.703125 706.050781 579.828125 726.691406 565.90625 C 749.761719 550.523438 771.359375 533.292969 791.480469 514.210938 C 829.195312 478.042969 861.859375 430.410156 866.855469 377.023438 C 869.054688 353.707031 865.703125 328.238281 850.90625 309.246094 C 838.035156 292.714844 816.675781 282.324219 795.554688 283.957031 C 792.871094 284.164062 790.226562 284.589844 787.613281 285.234375 C 785.003906 285.878906 782.464844 286.734375 779.992188 287.800781 C 777.523438 288.863281 775.160156 290.125 772.898438 291.582031 C 770.636719 293.039062 768.511719 294.671875 766.519531 296.480469 C 756.355469 305.695312 750.824219 318.480469 747.070312 331.441406 C 740.929688 353.46875 737.796875 375.917969 737.671875 398.785156 C 737.183594 439.976562 749.765625 486.238281 790.609375 504.496094 C 814.746094 515.289062 842.628906 514.152344 868.097656 509.476562 C 891.070312 505.238281 912.972656 497.835938 933.808594 487.273438 C 944.019531 482.089844 953.839844 476.25 963.273438 469.757812 C 972.707031 463.265625 981.664062 456.171875 990.152344 448.484375 C 998.636719 440.796875 1006.578125 432.578125 1013.964844 423.828125 C 1021.355469 415.082031 1028.132812 405.882812 1034.296875 396.230469 C 1046.261719 377.417969 1055.382812 357.316406 1061.660156 335.921875 C 1062.898438 331.792969 1059.128906 327.375 1055.230469 326.671875 C 1050.605469 325.847656 1047.214844 328.96875 1045.996094 333.105469 C 1034.214844 372.792969 1010.539062 408.34375 980.171875 436.246094 C 972.609375 443.21875 964.621094 449.660156 956.207031 455.574219 C 947.792969 461.488281 939.027344 466.828125 929.90625 471.585938 C 920.789062 476.34375 911.398438 480.480469 901.730469 483.996094 C 892.066406 487.515625 882.214844 490.382812 872.171875 492.601562 C 849.925781 497.363281 824.679688 500.082031 802.738281 492.320312 C 798.476562 490.773438 794.414062 488.820312 790.546875 486.453125 C 786.679688 484.085938 783.085938 481.359375 779.769531 478.269531 C 776.453125 475.179688 773.476562 471.789062 770.84375 468.097656 C 768.210938 464.40625 765.972656 460.492188 764.132812 456.347656 C 748.210938 421.515625 752.296875 379.011719 760.710938 342.710938 C 765.246094 323.0625 774.683594 301.355469 797.519531 299.804688 C 814.382812 298.660156 831.34375 308.023438 840.539062 321.972656 C 852.15625 339.632812 853.429688 362.125 850.261719 382.488281 C 846.5625 406.164062 837.1875 428.703125 824.714844 449.082031 C 798.53125 491.996094 758.417969 525.289062 717.199219 553.054688 C 680.019531 578.101562 638.546875 600.941406 592.839844 603.585938 C 554.410156 605.832031 511.777344 589.6875 491.160156 555.722656 C 473.703125 527.007812 480.917969 491.269531 504.417969 468.683594 C 514.417969 459.070312 528.828125 452.519531 542.722656 453.664062 C 562.558594 455.292969 578.640625 468.472656 588.671875 485.035156 C 613.414062 525.839844 594.832031 576.164062 574.679688 614.625 C 563.570312 635.808594 549.941406 656.183594 531.941406 672.167969 C 527.734375 675.828125 523.3125 679.214844 518.679688 682.320312 C 514.050781 685.429688 509.242188 688.234375 504.257812 690.738281 C 499.277344 693.246094 494.15625 695.429688 488.898438 697.292969 C 483.640625 699.15625 478.289062 700.6875 472.839844 701.878906 C 451.699219 706.769531 429.386719 707.136719 407.875 705 C 384.226562 702.734375 361.203125 697.648438 338.804688 689.738281 C 295.269531 674.152344 253.453125 646.027344 233.394531 603.015625 C 228.875 593.496094 225.5 583.582031 223.273438 573.28125 C 221.046875 562.980469 220.027344 552.5625 220.210938 542.023438 C 220.664062 522.53125 226.425781 499.96875 239.414062 484.9375 C 252.40625 469.902344 272.898438 479.015625 281.859375 493.421875 C 287.589844 502.636719 289.769531 513.671875 290.941406 524.308594 C 292.152344 536.484375 292.699219 548.691406 292.578125 560.929688 C 292.550781 586.253906 290.222656 611.367188 285.597656 636.269531 C 280.972656 661.167969 274.125 685.441406 265.058594 709.089844 C 251.296875 744.894531 231.335938 781.488281 198.585938 803.234375 C 184.230469 812.742188 167.355469 818.496094 149.996094 817.503906 C 126.34375 816.09375 106.054688 803.117188 89.632812 786.867188 C 72.464844 769.878906 58.910156 749.355469 46.148438 728.933594 C 40.636719 720.183594 27.472656 729.144531 32.972656 737.871094 Z M 32.972656 737.871094 " fill-opacity="1" fill-rule="nonzero"/></g></g></g></svg>